<svg width="100" height="100" viewBox="0 0 100 100" fill="none" xmlns="http://www.w3.org/2000/svg">
<rect width="100" height="100" fill="#FFFAEF"/>
<path d="M83.5568 44.4376L82.0955 49.7365L80.2887 56.4795C79.5306 59.3085 81.9445 59.2908 81.6433 60.4146C81.498 60.9571 80.9962 61.2796 80.019 61.5162C78.6903 61.8247 76.3228 61.9795 75.2377 61.6888C74.1526 61.398 73.8537 60.6534 74.2123 59.005L74.454 57.9482C72.294 59.6539 69.5022 60.152 67.4095 59.5912C63.2242 58.4698 61.6182 55.0074 62.9474 50.0469L64.3077 44.9702C65.0242 42.2963 63.0913 42.0691 63.4028 40.9065C63.5378 40.4027 63.8818 40.2041 64.9261 40.027C66.7614 39.6881 69.8009 39.5057 70.4209 39.6718C71.041 39.838 71.2188 40.2594 71.0007 41.0732L69.5394 46.3721L68.2518 51.1775C67.4626 54.1227 67.778 56.201 70.1136 56.7852C72.1779 57.2968 74.8908 55.6978 75.7735 52.4037L76.8638 48.3346C77.5803 45.6607 75.6474 45.4335 75.9589 44.2709C76.0939 43.7671 76.4379 43.5685 77.4822 43.3914C79.3175 43.0525 82.357 42.8701 82.977 43.0362C83.5971 43.2023 83.7749 43.6238 83.5568 44.4376Z" fill="#000C31"/>
<path d="M55.42 76.5457C52.5134 77.3245 50.6214 77.0839 49.575 77.3642C48.4512 77.6654 48.4935 78.4432 47.7184 78.6509C46.9821 78.8482 46.3925 78.5078 45.6747 76.914C44.8662 75.137 44.0785 73.4374 43.3836 71.4637C43.0644 70.4278 43.0817 69.7171 43.818 69.5198C44.5155 69.3328 44.9502 69.7148 45.9593 70.6905C47.6646 72.5596 50.7922 75.0859 55.1713 73.9125C58.039 73.1441 58.7731 71.0783 58.3626 69.2362C57.7236 66.5414 54.0841 65.9798 50.3823 65.1856C45.5871 64.1861 41.7227 63.5601 40.4974 58.9872C39.3655 54.7631 42.3838 50.2161 48.1193 48.6793C50.0182 48.1705 51.7525 48.2873 52.6438 48.0485C53.6126 47.7889 53.6998 47.184 54.4749 46.9763C55.1724 46.7894 55.7025 47.0627 56.4978 48.6357C57.1713 49.909 57.9071 51.4148 58.519 53.0784C58.8768 54.104 58.8208 54.8251 58.007 55.0431C57.387 55.2093 56.7869 54.8301 55.7495 53.9035C53.9618 52.3473 51.215 50.4666 48.1922 51.2765C45.712 51.9411 44.7294 53.6996 45.2486 55.6373C45.9132 58.1175 48.444 58.727 53.0247 59.701C58.0836 60.7545 62.1702 61.2794 63.3719 65.6094C64.8409 70.7816 60.6517 75.1439 55.42 76.5457Z" fill="#000C31"/>
<path d="M59.5568 26.4376L58.0955 31.7365L56.2887 38.4795C55.5306 41.3085 57.9445 41.2908 57.6433 42.4146C57.498 42.9571 56.9962 43.2796 56.019 43.5162C54.6903 43.8247 52.3228 43.9795 51.2377 43.6888C50.1526 43.398 49.8537 42.6534 50.2123 41.005L50.454 39.9482C48.2939 41.6539 45.5022 42.152 43.4095 41.5912C39.2242 40.4698 37.6182 37.0074 38.9474 32.0469L40.3077 26.9702C41.0242 24.2963 39.0913 24.0691 39.4028 22.9065C39.5378 22.4027 39.8818 22.2041 40.9261 22.027C42.7614 21.6881 45.8009 21.5057 46.4209 21.6718C47.041 21.838 47.2188 22.2594 47.0007 23.0732L45.5394 28.3721L44.2518 33.1775C43.4626 36.1227 43.778 38.201 46.1136 38.7852C48.1779 39.2968 50.8908 37.6978 51.7735 34.4037L52.8638 30.3346C53.5803 27.6607 51.6474 27.4335 51.9589 26.2709C52.0939 25.7671 52.4379 25.5685 53.4822 25.3914C55.3175 25.0525 58.357 24.8701 58.977 25.0362C59.5971 25.2023 59.7749 25.6238 59.5568 26.4376Z" fill="#000C31"/>
<path d="M31.42 58.5457C28.5135 59.3245 26.6214 59.0839 25.5751 59.3642C24.4512 59.6654 24.4935 60.4432 23.7184 60.6509C22.9821 60.8482 22.3925 60.5078 21.6747 58.914C20.8662 57.137 20.0785 55.4374 19.3836 53.4637C19.0644 52.4278 19.0817 51.7171 19.818 51.5198C20.5155 51.3328 20.9502 51.7148 21.9593 52.6905C23.6646 54.5596 26.7922 57.0859 31.1713 55.9125C34.039 55.1441 34.7731 53.0783 34.3626 51.2362C33.7236 48.5414 30.0841 47.9798 26.3823 47.1856C21.5871 46.1861 17.7227 45.5601 16.4974 40.9872C15.3655 36.7631 18.3838 32.2161 24.1193 30.6793C26.0182 30.1705 27.7525 30.2873 28.6438 30.0485C29.6126 29.7889 29.6998 29.184 30.4749 28.9763C31.1724 28.7894 31.7025 29.0627 32.4978 30.6357C33.1713 31.909 33.9071 33.4148 34.519 35.0784C34.8768 36.104 34.8208 36.8251 34.007 37.0431C33.387 37.2093 32.7869 36.8301 31.7495 35.9035C29.9618 34.3473 27.215 32.4666 24.1922 33.2765C21.712 33.9411 20.7294 35.6996 21.2486 37.6373C21.9132 40.1175 24.444 40.727 29.0247 41.701C34.0836 42.7545 38.1702 43.2794 39.3719 47.6094C40.8409 52.7816 36.6517 57.1439 31.42 58.5457Z" fill="#000C31"/>
</svg>
